# Blender v2.83.5 OBJ File: 'DEV TEST grid.blend'
# www.blender.org
mtllib DEV TEST grid.mtl
o Cube
v 17.000000 0.000000 -18.000000
v 17.000000 -0.465320 -18.000000
v 17.000000 0.000000 18.000000
v 17.000000 -0.465320 18.000000
v -17.000000 0.000000 -18.000000
v -17.000000 -0.465320 -18.000000
v -17.000000 0.000000 18.000000
v -17.000000 -0.465320 18.000000
vt 18.447657 1.599999
vt 0.123830 1.599999
vt 0.123828 -18.199999
vt 18.447655 -18.200001
vt 18.949221 -18.200001
vt 19.199999 -18.200001
vt 19.200001 0.500000
vt 18.949223 0.500000
vt 18.949221 1.599999
vt 18.698442 1.599999
vt 18.698441 -18.200001
vt 18.949219 -18.200001
vt -18.200001 -18.199999
vt 0.123826 -18.200001
vt 0.123828 1.599999
vt -18.199999 1.599999
vt 18.698439 1.599999
vt 18.698435 -18.200001
vt 19.200001 19.200001
vt 18.949223 19.200001
vt 18.949221 0.500000
vt 19.199999 0.500000
vn 0.0000 1.0000 0.0000
vn 0.0000 0.0000 1.0000
vn -1.0000 0.0000 0.0000
vn 0.0000 -1.0000 0.0000
vn 1.0000 0.0000 0.0000
vn 0.0000 0.0000 -1.0000
usemtl Material
s off
f 1/1/1 5/2/1 7/3/1 3/4/1
f 4/5/2 3/6/2 7/7/2 8/8/2
f 8/9/3 7/10/3 5/11/3 6/12/3
f 6/13/4 2/14/4 4/15/4 8/16/4
f 2/17/5 1/1/5 3/4/5 4/18/5
f 6/19/6 5/20/6 1/21/6 2/22/6
